<svg xmlns="http://www.w3.org/2000/svg" width="20" height="20" fill="none"><path fill="#212121" fill-rule="evenodd" d="M14.5 3A2.5 2.5 0 0 1 17 5.5v4.1a5.465 5.465 0 0 0-1-.393V7H4v7.5A1.5 1.5 0 0 0 5.5 16h3.707c.099.349.23.683.393 1H5.5A2.5 2.5 0 0 1 3 14.5v-9A2.5 2.5 0 0 1 5.5 3h9Zm0 1h-9A1.5 1.5 0 0 0 4 5.5V6h12v-.5A1.5 1.5 0 0 0 14.5 4Z" clip-rule="evenodd"/><path fill="#212121" fill-rule="evenodd" d="M19 14.5a4.5 4.5 0 1 1-9 0 4.5 4.5 0 0 1 9 0Zm-1.55.371-1.768 1.768a.5.5 0 0 1-.707-.707l1.414-1.414-1.414-1.414a.5.5 0 0 1 .707-.708l1.768 1.768a.5.5 0 0 1 0 .707Zm-5.304-2.475a.5.5 0 0 0 0 .708l1.415 1.414-1.415 1.414a.5.5 0 0 0 .708.707l1.767-1.768a.5.5 0 0 0 0-.707l-1.767-1.768a.5.5 0 0 0-.708 0Z" clip-rule="evenodd"/></svg>